# xmcd
#
# Track frame offsets:
#	150
#	16566
#	27944
#	42751
#	61821
#	71611
#	83133
#	96646
#	114868
#	125595
#	145245
#	159148
#	170719
#	186938
#
# Disc length: 2780 seconds
#
# Revision: 0
# Processed by: cddbd v1.5.1PL2 Copyright (c) Steve Scherf et al.
# Submitted via: EasyCDDAExtractor 9.0.0.1
#
DISCID=b20ada0e
DTITLE=Various Artist - Hits
DYEAR=1900
DGENRE=Country
TTITLE0=Waylon Jennings - Rose In Paradise
TTITLE1=Waylon Jennings - Ladies Love Outlaws
TTITLE2=Waylon Jennings - Luckenbach, Texas (Back To The Basics Of Love)
TTITLE3=Waylon Jennings - I've Always Been Crazy
TTITLE4=Waylon Jennings - Good 'ol Boys (Theme from The Dukes Of Hazzard)
TTITLE5=Waylon Jennings and Willie Nelson - Mamas, Don't Let Your Babies Grow 
TTITLE5=Up To Be Cowboys
TTITLE6=Waylon Jennings and Willie Nelson - Good Hearted Woman
TTITLE7=Waylon Jennings and Willie Nelson - A Couple More Years
TTITLE8=Willie Nelson - Blue Eyes Crying In The Rain
TTITLE9=Willie Nelson - Georgia On My Mind
TTITLE10=Willie Nelson - My Heros Have Always Been Cowboys
TTITLE11=Willie Nelson - On The Road Again
TTITLE12=Willie Nelson - Always On My Mind
TTITLE13=Willie Nelson with Merle Haggard - Poncho and Lefty
EXTD=
EXTT0=
EXTT1=
EXTT2=
EXTT3=
EXTT4=
EXTT5=
EXTT6=
EXTT7=
EXTT8=
EXTT9=
EXTT10=
EXTT11=
EXTT12=
EXTT13=
PLAYORDER=
